HIERARCHY
ROOT Hips
{
	OFFSET 0.00000 0.00000 0.00000
	CHANNELS 6 Xposition Yposition Zposition Zrotation Yrotation Xrotation 
	JOINT LHipJoint
	{
		OFFSET 0 0 0
		CHANNELS 3 Zrotation Yrotation Xrotation
		JOINT LeftUpLeg
		{
			OFFSET 1.53927 -1.56553 0.51726
			CHANNELS 3 Zrotation Yrotation Xrotation
			JOINT LeftLeg
			{
				OFFSET 2.38199 -6.54447 0.00000
				CHANNELS 3 Zrotation Yrotation Xrotation
				JOINT LeftFoot
				{
					OFFSET 2.35499 -6.47028 0.00000
					CHANNELS 3 Zrotation Yrotation Xrotation
					JOINT LeftToeBase
					{
						OFFSET 0.13641 -0.37478 1.84251
						CHANNELS 3 Zrotation Yrotation Xrotation
						End Site
						{
							OFFSET 0.00000 -0.00000 0.95212
						}
					}
				}
			}
		}
	}
	JOINT RHipJoint
	{
		OFFSET 0 0 0
		CHANNELS 3 Zrotation Yrotation Xrotation
		JOINT RightUpLeg
		{
			OFFSET -1.43919 -1.56553 0.51726
			CHANNELS 3 Zrotation Yrotation Xrotation
			JOINT RightLeg
			{
				OFFSET -2.34860 -6.45274 0.00000
				CHANNELS 3 Zrotation Yrotation Xrotation
				JOINT RightFoot
				{
					OFFSET -2.25563 -6.19730 0.00000
					CHANNELS 3 Zrotation Yrotation Xrotation
					JOINT RightToeBase
					{
						OFFSET -0.19755 -0.54277 1.84912
						CHANNELS 3 Zrotation Yrotation Xrotation
						End Site
						{
							OFFSET -0.00000 -0.00000 0.97032
						}
					}
				}
			}
		}
	}
	JOINT LowerBack
	{
		OFFSET 0 0 0
		CHANNELS 3 Zrotation Yrotation Xrotation
		JOINT Spine
		{
			OFFSET -0.06402 1.88434 -0.00445
			CHANNELS 3 Zrotation Yrotation Xrotation
			JOINT Spine1
			{
				OFFSET 0.00756 1.88511 0.04237
				CHANNELS 3 Zrotation Yrotation Xrotation
				JOINT Neck
				{
					OFFSET 0 0 0
					CHANNELS 3 Zrotation Yrotation Xrotation
					JOINT Neck1
					{
						OFFSET -0.06230 1.34710 0.03308
						CHANNELS 3 Zrotation Yrotation Xrotation
						JOINT Head
						{
							OFFSET -0.02442 1.34501 -0.13654
							CHANNELS 3 Zrotation Yrotation Xrotation
							End Site
							{
								OFFSET -0.00508 1.35584 -0.05075
							}
						}
					}
				}
				JOINT LeftShoulder
				{
					OFFSET 0 0 0
					CHANNELS 3 Zrotation Yrotation Xrotation
					JOINT LeftArm
					{
						OFFSET 2.76911 0.54460 0.39412
						CHANNELS 3 Zrotation Yrotation Xrotation
						JOINT LeftForeArm
						{
							OFFSET 4.40919 -0.00000 -0.00000
							CHANNELS 3 Zrotation Yrotation Xrotation
							JOINT LeftHand
							{
								OFFSET 3.03857 -0.00000 -0.00000
								CHANNELS 3 Zrotation Yrotation Xrotation
								JOINT LeftFingerBase
								{
									OFFSET 0 0 0
									CHANNELS 3 Zrotation Yrotation Xrotation
									JOINT LeftHandIndex1
									{
										OFFSET 0.52321 -0.00000 -0.00000
										CHANNELS 3 Zrotation Yrotation Xrotation
										End Site
										{
											OFFSET 0.42182 -0.00000 -0.00000
										}
									}
								}
								JOINT LThumb
								{
									OFFSET 0 0 0
									CHANNELS 3 Zrotation Yrotation Xrotation
									End Site
									{
										OFFSET 0.42826 -0.00000 0.42826
									}
								}
							}
						}
					}
				}
				JOINT RightShoulder
				{
					OFFSET 0 0 0
					CHANNELS 3 Zrotation Yrotation Xrotation
					JOINT RightArm
					{
						OFFSET -2.99050 0.75949 0.48975
						CHANNELS 3 Zrotation Yrotation Xrotation
						JOINT RightForeArm
						{
							OFFSET -4.61969 -0.00000 -0.00000
							CHANNELS 3 Zrotation Yrotation Xrotation
							JOINT RightHand
							{
								OFFSET -3.09382 -0.00000 -0.00000
								CHANNELS 3 Zrotation Yrotation Xrotation
								JOINT RightFingerBase
								{
									OFFSET 0 0 0
									CHANNELS 3 Zrotation Yrotation Xrotation
									JOINT RightHandIndex1
									{
										OFFSET -0.50090 -0.00000 -0.00000
										CHANNELS 3 Zrotation Yrotation Xrotation
										End Site
										{
											OFFSET -0.40384 -0.00000 -0.00000
										}
									}
								}
								JOINT RThumb
								{
									OFFSET 0 0 0
									CHANNELS 3 Zrotation Yrotation Xrotation
									End Site
									{
										OFFSET -0.41000 -0.00000 0.41000
									}
								}
							}
						}
					}
				}
			}
		}
	}
}
MOTION
Frames: 11
Frame Time: .0083333
9.228 16.1711 0.5228 0 0 0 0 0 0 -21 0 0 0 0 0 0 0 0 0 0 0 0 0 0 21 0 0 0 0 0 0 0 0 0 0 0 0 0 0 0 0 0 0 0 0 0 0 -16 0 0 21 0 0 11 0 0 0 -8 0 0 0 0 0 0 0 0 0 0 0 0 0 0 0 0 0 0 0 0 8 0 0 0 0 0 0 0 0 0 0 0 0 0 0 0 0 0
9.2280 16.1711 0.5228 169.1190 -81.3422 -163.7650 0.0000 0.0000 0.0000 -27.6521 -15.9925 -7.8375 1.6224 8.0308 22.8077 -0.3568 14.8440 -16.6239 0.4544 4.3244 11.9910 0.0000 0.0000 0.0000 10.4869 26.7984 -10.3071 -1.8009 -8.4384 24.0537 -0.5182 -1.6982 -14.3199 -0.0006 -0.1566 0.4302 -5.5524 -1.3607 1.1252 0.9694 -1.9825 -2.9224 4.1962 -0.8330 -3.4347 0.5895 3.0325 -4.7662 -5.4571 4.4252 28.7785 -1.6797 1.0408 10.0442 0.0000 0.0000 0.0000 -89.1978 17.1128 -1.7813 29.3117 -40.2961 -10.9617 -0.0000 -0.0000 10.8637 19.4794 -7.3181 -2.5798 -7.1250 0.0000 -0.0000 -5.3430 22.2339 2.9365 0.0000 0.0000 0.0000 78.9990 -24.4301 -5.9575 -43.4047 49.9626 -21.0101 0.0000 0.0000 0.3873 -4.4465 -52.3352 3.5225 7.1250 -0.0000 -0.0000 68.3031 -72.7106 -50.6805
9.2463 16.1751 0.5235 169.4100 -81.1011 -163.9230 0.0000 0.0000 0.0000 -27.5784 -15.8660 -8.2100 1.6398 8.0717 22.9319 -0.3324 14.7184 -16.7564 0.4930 4.5018 12.4929 0.0000 0.0000 0.0000 10.3679 26.8786 -10.6393 -1.8119 -8.4627 24.1286 -0.5156 -1.4542 -14.1681 -0.0012 -0.2199 0.6042 -5.6253 -1.4423 1.1095 0.9332 -2.0885 -2.8041 4.1998 -0.8908 -3.2896 0.9444 3.3236 -5.0042 -5.6599 4.8511 28.8419 -1.7688 1.2484 10.1447 -0.0000 0.0000 0.0000 -88.8939 16.9641 -1.6010 29.6757 -40.6138 -11.1979 -0.0000 -0.0000 11.5938 20.2796 -6.2968 -2.3207 -7.1250 0.0000 -0.0000 -4.7635 23.2758 2.5018 -0.0000 0.0000 0.0000 78.8463 -24.1163 -6.1537 -44.1562 50.3484 -21.5871 0.0000 0.0000 0.2101 -4.9366 -51.9284 3.8899 7.1250 -0.0000 -0.0000 66.7880 -72.7472 -49.3597
9.2664 16.1738 0.5222 169.9620 -80.8650 -164.3610 0.0000 0.0000 0.0000 -27.4422 -15.7513 -8.5405 1.6513 8.0985 23.0137 -0.3317 14.6971 -16.7273 0.4836 4.4595 12.3732 0.0000 0.0000 0.0000 10.3236 27.0357 -10.9512 -1.8288 -8.5000 24.2433 -0.5086 -1.2975 -14.0041 -0.0013 -0.2312 0.6351 -5.7253 -1.5640 1.0715 0.9336 -2.2432 -2.6180 4.2556 -0.9759 -3.0536 1.4229 3.6533 -5.4551 -6.0113 5.3613 28.9638 -1.9206 1.4869 10.3239 -0.0000 -0.0000 0.0000 -88.6419 16.6590 -1.6533 30.1537 -41.0248 -11.5104 -0.0000 -0.0000 11.8555 20.6143 -5.5735 -2.0923 -7.1250 0.0000 -0.0000 -4.5222 24.0301 2.2956 -0.0000 -0.0000 0.0000 78.7088 -23.6068 -6.2448 -44.9699 50.7537 -22.2155 0.0000 0.0000 0.1218 -4.7677 -51.4222 3.7305 7.1250 -0.0000 -0.0000 65.3725 -72.4999 -47.8185
9.2859 16.1725 0.5189 170.1200 -80.6616 -164.4520 0.0000 0.0000 0.0000 -27.3545 -15.5655 -8.8423 1.6620 8.1234 23.0895 -0.3329 14.5934 -16.5201 0.4729 4.4106 12.2348 0.0000 0.0000 0.0000 10.2576 27.1979 -11.1897 -1.8463 -8.5384 24.3617 -0.5044 -1.1753 -13.8930 -0.0012 -0.2208 0.6067 -5.7251 -1.6140 1.1064 0.8094 -2.3103 -2.4966 4.1266 -1.0165 -2.9442 1.8169 3.8574 -5.8865 -6.1939 5.6531 29.3036 -2.0241 1.6225 10.5683 0.0000 0.0000 0.0000 -88.1945 16.3731 -1.5437 30.6210 -41.4197 -11.8183 -0.0000 -0.0000 11.7375 20.6295 -5.1061 -1.9190 -7.1250 0.0000 -0.0000 -4.5164 24.5267 2.2407 0.0000 0.0000 0.0000 78.8226 -23.5180 -6.4688 -46.1007 51.2964 -23.0946 0.0000 -0.0000 -0.1044 -3.7152 -50.6647 2.8752 7.1250 -0.0000 -0.0000 63.8683 -71.8223 -45.7275
9.3047 16.1733 0.5148 169.9310 -80.4204 -164.1560 0.0000 0.0000 0.0000 -27.3334 -15.3126 -9.1949 1.6710 8.1444 23.1534 -0.3235 14.3930 -16.2939 0.4823 4.4532 12.3554 0.0000 0.0000 0.0000 10.1059 27.3464 -11.4708 -1.8638 -8.5765 24.4793 -0.4996 -1.0341 -13.7658 -0.0015 -0.2462 0.6765 -5.7063 -1.5605 1.1960 0.6549 -2.2509 -2.5472 3.9583 -0.9848 -3.0606 1.7216 3.8803 -6.0571 -5.8775 5.6109 29.7868 -1.9055 1.6017 10.7703 -0.0000 0.0000 0.0000 -87.7578 16.3632 -1.3086 31.1398 -41.8505 -12.1630 -0.0000 -0.0000 11.9302 20.7608 -4.4601 -1.6886 -7.1250 0.0000 -0.0000 -4.4277 25.2101 2.1260 -0.0000 0.0000 0.0000 79.0254 -23.9038 -6.9401 -47.3688 51.8776 -24.0882 0.0000 -0.0000 -0.3620 -3.4152 -50.0394 2.6190 7.1250 -0.0000 -0.0000 62.3571 -71.4494 -44.0001
9.3252 16.1735 0.5100 169.8350 -80.1661 -163.9860 0.0000 0.0000 0.0000 -27.3139 -15.0180 -9.5117 1.6797 8.1643 23.2142 -0.3026 14.2110 -16.2814 0.5017 4.5406 12.6028 0.0000 0.0000 0.0000 9.9904 27.5600 -11.6947 -1.8807 -8.6131 24.5924 -0.4899 -0.9434 -13.5966 -0.0041 -0.4125 1.1333 -5.7214 -1.4234 1.3360 0.5606 -2.0831 -2.6135 3.8699 -0.8956 -3.2301 1.9654 3.9542 -5.2859 -6.0718 5.7062 29.1504 -2.0067 1.6876 10.3954 0.0000 0.0000 0.0000 -87.3475 16.3197 -0.8694 31.5653 -42.1978 -12.4478 -0.0000 -0.0000 12.2726 21.1222 -3.3191 -1.2813 -7.1250 0.0000 -0.0000 -4.1763 26.4179 1.8868 0.0000 0.0000 0.0000 79.2705 -24.3867 -7.7267 -48.7081 52.4610 -25.1461 0.0000 -0.0000 -0.6012 -4.8866 -51.5298 3.8295 7.1250 -0.0000 -0.0000 65.6194 -72.5835 -48.1322
9.3456 16.1763 0.5060 169.8290 -80.0392 -163.9640 0.0000 0.0000 0.0000 -27.2734 -14.7860 -9.7330 1.6904 8.1890 23.2896 -0.2652 13.9663 -16.4103 0.5388 4.7032 13.0640 0.0000 0.0000 0.0000 9.9659 27.7486 -11.8187 -1.9017 -8.6582 24.7317 -0.4796 -0.9409 -13.4562 -0.0120 -0.7062 1.9408 -5.7103 -1.3560 1.4801 0.4959 -2.0023 -2.5840 3.7977 -0.8548 -3.2922 1.6739 4.0066 -5.2001 -5.7170 5.7297 29.1106 -1.8266 1.7098 10.3442 -0.0000 -0.0000 0.0000 -86.9800 16.0765 -0.5070 31.9582 -42.5138 -12.7125 -0.0000 -0.0000 12.4045 21.3699 -2.6028 -1.0180 -7.1250 0.0000 -0.0000 -4.0039 27.1794 1.7368 -0.0000 -0.0000 0.0000 79.5181 -24.7220 -8.4517 -50.0647 53.0216 -26.2259 0.0000 -0.0000 -0.8994 -3.8745 -50.9618 3.0112 7.1250 -0.0000 -0.0000 64.6006 -71.9998 -46.5688
9.3654 16.1782 0.5018 169.9870 -79.9375 -164.1210 0.0000 0.0000 0.0000 -27.2091 -14.6802 -9.8976 1.7050 8.2226 23.3921 -0.2480 13.8294 -16.4288 0.5527 4.7625 13.2324 0.0000 0.0000 0.0000 10.0043 27.8554 -11.9325 -1.9252 -8.7084 24.8875 -0.4775 -0.9145 -13.4162 -0.0093 -0.6230 1.7121 -5.7191 -1.3532 1.6609 0.4663 -2.0092 -2.5463 3.7771 -0.8567 -3.3552 1.7977 4.1523 -5.1994 -5.8765 5.9556 29.2135 -1.8837 1.8025 10.4032 0.0000 0.0000 0.0000 -86.7584 15.9665 -0.3197 32.5639 -42.9922 -13.1238 -0.0000 -0.0000 12.4097 21.3024 -2.2953 -0.8947 -7.1250 0.0000 -0.0000 -4.0637 27.5097 1.7312 0.0000 0.0000 0.0000 79.6778 -24.9214 -8.9373 -51.2599 53.4912 -27.1836 0.0000 -0.0000 -1.2344 -2.8797 -50.2829 2.2159 7.1250 -0.0000 -0.0000 63.3837 -71.3664 -44.7862
9.3863 16.1746 0.4963 170.2890 -79.7717 -164.4090 0.0000 0.0000 0.0000 -27.1197 -14.7239 -10.0719 1.7252 8.2686 23.5328 -0.2697 13.9574 -16.3268 0.5128 4.5901 12.7429 0.0000 0.0000 0.0000 10.0626 27.9607 -12.0722 -1.9512 -8.7637 25.0589 -0.4781 -0.8359 -13.3902 -0.0046 -0.4393 1.2072 -5.7113 -1.3135 1.8030 0.4170 -1.9638 -2.4902 3.7231 -0.8346 -3.3838 2.0335 4.2742 -5.4027 -6.1612 6.1710 29.4909 -2.0062 1.8780 10.5770 0.0000 -0.0000 0.0000 -86.4686 15.8415 -0.0662 33.1131 -43.4168 -13.4998 -0.0000 -0.0000 12.4048 21.3699 -1.7925 -0.7012 -7.1250 0.0000 -0.0000 -4.0265 28.0472 1.6641 0.0000 -0.0000 0.0000 79.9324 -25.0618 -9.4606 -52.4297 53.9296 -28.1265 0.0000 -0.0000 -1.6586 -0.1498 -48.3766 0.1119 7.1250 -0.0000 -0.0000 60.5840 -69.5488 -40.3278
9.4035 16.1725 0.4901 170.5900 -79.6652 -164.7380 0.0000 0.0000 0.0000 -27.0296 -14.7986 -10.1815 1.7511 8.3271 23.7120 -0.2785 14.0101 -16.2874 0.4942 4.5070 12.5077 0.0000 0.0000 0.0000 10.1686 28.0175 -12.1271 -1.9806 -8.8256 25.2512 -0.4737 -0.7081 -13.2765 -0.0092 -0.6209 1.7061 -5.6297 -1.2767 1.9161 0.3304 -1.9176 -2.4046 3.5873 -0.8165 -3.3686 2.0824 4.3481 -5.4494 -6.1903 6.2767 29.5670 -2.0145 1.9239 10.6235 0.0000 -0.0000 0.0000 -86.1069 15.6617 0.2462 33.6104 -43.7940 -13.8427 -0.0000 -0.0000 12.3047 22.6413 -2.9459 -1.2280 -7.1250 0.0000 -0.0000 -3.0250 26.7858 1.3389 0.0000 -0.0000 0.0000 80.3293 -25.1964 -10.1138 -53.6123 54.3524 -29.0850 0.0000 -0.0000 -2.0558 -14.9900 -54.7518 12.3347 7.1250 -0.0000 -0.0000 73.1722 -77.2762 -60.3187
